<?xml version="1.0" encoding="UTF-8" standalone="no"?><!DOCTYPE svg PUBLIC "-//W3C//DTD SVG 1.1//EN" "http://www.w3.org/Graphics/SVG/1.1/DTD/svg11.dtd"><svg width="100%" height="100%" viewBox="0 0 102 25" version="1.1" xmlns="http://www.w3.org/2000/svg" xmlns:xlink="http://www.w3.org/1999/xlink" xml:space="preserve" xmlns:serif="http://www.serif.com/" style="fill-rule:evenodd;clip-rule:evenodd;stroke-linejoin:round;stroke-miterlimit:1.41421;"><g id="gameup"><path d="M12.278,0.827c-6.598,0 -11.946,5.349 -11.946,11.947c0,6.597 5.348,11.946 11.946,11.946c6.598,0 11.947,-5.349 11.947,-11.946c0,-6.598 -5.349,-11.947 -11.947,-11.947Zm-7.294,15.798c0,0.054 -0.001,-0.055 0,0m0,0c0.088,2.724 1.699,5.064 3.999,6.211c-4.232,-1.373 -7.288,-5.346 -7.288,-10.036c0,-5.828 4.727,-10.552 10.554,-10.552c5.828,0 10.553,4.724 10.553,10.552c0,4.795 -3.198,8.84 -7.577,10.124c2.466,-1.143 4.177,-3.639 4.177,-6.536c0,-2.654 -1.439,-4.969 -3.576,-6.218l-0.001,-0.006l-0.001,0.004c-0.027,-0.016 -0.054,-0.033 -0.082,-0.048l0,-0.003l-0.072,-0.04l-0.106,-0.056l0.015,0.082c0.195,1.794 -1.079,2.573 -1.079,2.573c-1.01,-1.147 -1.431,-2.344 -1.563,-3.45c-0.294,-2.453 0.956,-4.454 0.956,-4.454c-9.43,3.17 -8.909,11.853 -8.909,11.853" style="fill:#f67314;fill-rule:nonzero;"/><g><g><path d="M30.784,18.532c0.559,1.139 1.676,1.848 2.944,1.848c1.783,0 3.223,-1.44 3.266,-3.202l0,-1.182c-0.924,0.688 -2.041,1.118 -3.266,1.118c-2.987,0 -5.393,-2.428 -5.393,-5.393c0,-2.987 2.406,-5.393 5.393,-5.393c2.965,0 5.393,2.406 5.393,5.393l0,5.393c0,2.965 -2.428,5.393 -5.393,5.393c-2.084,0 -3.932,-1.161 -4.856,-3.03m8.122,-7.756c0,-1.805 -1.483,-3.266 -3.266,-3.266c-1.805,0 -3.266,1.461 -3.266,3.266c0,1.783 1.461,3.266 3.266,3.266c1.783,0 3.266,-1.483 3.266,-3.266Z" style="fill:#4a4a4a;fill-rule:nonzero;"/><path d="M49.217,17.092c-0.257,-0.191 -0.191,-0.71 -0.191,-1.074c-0.924,0.773 -1.955,1.074 -3.18,1.074c-3.029,0 -5.436,-2.256 -5.436,-5.285c0,-3.03 2.407,-5.436 5.436,-5.436c3.03,0 5.286,2.406 5.286,5.436l0,4.211c0,0.33 0.033,0.873 -0.178,1.065m-1.928,-5.276c0,-1.805 -1.375,-3.331 -3.18,-3.331c-1.805,0 -3.33,1.526 -3.33,3.331c0,1.804 1.525,3.18 3.33,3.18c1.805,0 3.18,-1.376 3.18,-3.18Z" style="fill:#4a4a4a;fill-rule:nonzero;"/><path d="M67.505,10.668c0,-2.364 -1.934,-4.297 -4.319,-4.297c-1.289,0 -2.45,0.558 -3.245,1.482c-0.795,-0.924 -1.955,-1.482 -3.244,-1.482c-2.385,0 -4.319,1.933 -4.319,4.297l0,5.414l2.127,0l0,-5.414c0,-1.203 0.989,-2.17 2.192,-2.17c1.203,0 2.17,0.967 2.17,2.17l0,5.414l2.127,0l0,-5.414c0,-1.203 0.989,-2.17 2.192,-2.17c1.203,0 2.191,0.967 2.191,2.17l0,5.414l2.128,0l0,-5.221c0,-0.043 0,-0.064 -0.022,-0.107c0.022,-0.022 0.022,-0.043 0.022,-0.086Z" style="fill:#4a4a4a;fill-rule:nonzero;"/><path d="M77.475,16.19c-1.418,0.945 -2.514,0.924 -3.309,0.924c-2.987,0 -5.393,-2.428 -5.393,-5.393c0,-2.987 2.406,-5.393 5.393,-5.393c2.6,0 5.393,1.89 5.393,5.393c0,0.58 -0.473,1.053 -1.074,1.053l-7.413,0c0.451,1.289 1.654,2.213 3.094,2.213c0.494,0 1.375,-0.043 2.406,-0.709m-5.5,-3.632l6.209,0c-0.451,-1.504 -1.826,-2.191 -3.115,-2.191c-1.44,0 -2.643,0.924 -3.094,2.191Z" style="fill:#4a4a4a;fill-rule:nonzero;"/><path d="M90.882,21.454l0,-9.626l0,-0.021c0,-2.965 2.428,-5.393 5.393,-5.393c2.987,0 5.393,2.428 5.393,5.393c0,2.986 -2.406,5.393 -5.393,5.393c-1.224,0 -2.363,-0.409 -3.266,-1.096l0,5.35m0,-9.647l0,0.021c0,1.783 1.461,3.245 3.266,3.245c1.805,0 3.266,-1.462 3.266,-3.266c0,-1.784 -1.461,-3.266 -3.266,-3.266c-1.805,0 -3.266,1.461 -3.266,3.266Z" style="fill:#f67314;fill-rule:nonzero;"/><g><path d="M85.21,15.008c0.117,0 0.231,-0.011 0.343,-0.029c1.485,-1.924 1.839,-4.954 1.891,-7.003l0,-0.864l-4.447,0l0,5.662c0,1.224 0.988,2.234 2.213,2.234Z" style="fill:none;fill-rule:nonzero;"/><path d="M87.45,7.112l-0.006,0l0,0.864c0.008,-0.313 0.009,-0.603 0.006,-0.864Z" style="fill:#4a4a4a;fill-rule:nonzero;"/><g><path d="M85.136,15.005c-1.195,-0.035 -2.149,-1.029 -2.149,-2.231l0,-5.662l-2.127,0l0,5.704c0.014,1.521 0.806,2.855 1.995,3.625c1.246,-0.343 1.969,-1.054 2.281,-1.436Z" style="fill:#4a4a4a;fill-rule:nonzero;"/><path d="M88.522,4.782l-2.683,2.33l1.611,0c0.003,0.261 0.002,0.551 -0.006,0.864l0,4.798c0,0.904 -0.54,1.69 -1.324,2.039c-0.756,1.086 -1.694,1.686 -2.509,2.015c0.494,0.197 1.034,0.307 1.599,0.307c2.406,0 4.34,-1.934 4.362,-4.319l0,-0.021l0,-5.645l0.003,0l1.618,0.001l-2.671,-2.369Z" style="fill:#f67314;fill-rule:nonzero;"/></g></g></g><rect x="49.027" y="15.829" width="2.107" height="1.263" style="fill:#4a4a4a;"/><rect x="52.378" y="14.743" width="2.127" height="2.349" style="fill:#4a4a4a;"/><rect x="65.378" y="14.743" width="2.127" height="2.349" style="fill:#4a4a4a;"/><path d="M77.47,12.774l2.089,0c0,0 0.357,-2.727 -1.187,-4.51l-0.902,4.51Z" style="fill:#4a4a4a;fill-rule:nonzero;"/><rect x="58.867" y="15.22" width="2.12" height="1.872" style="fill:#4a4a4a;"/></g></g></svg>