<?xml version="1.0" encoding="UTF-8" standalone="no"?><!DOCTYPE svg PUBLIC "-//W3C//DTD SVG 1.1//EN" "http://www.w3.org/Graphics/SVG/1.1/DTD/svg11.dtd"><svg width="100%" height="100%" viewBox="0 0 80 26" version="1.1" xmlns="http://www.w3.org/2000/svg" xmlns:xlink="http://www.w3.org/1999/xlink" xml:space="preserve" xmlns:serif="http://www.serif.com/" style="fill-rule:evenodd;clip-rule:evenodd;stroke-linejoin:round;stroke-miterlimit:1.41421;"><g id="itexico"><path d="M20.15,16.731l1.426,-11.837l2.954,0l-1.427,11.837l-2.953,0Z" style="fill:#1b75bc;fill-rule:nonzero;"/><path d="M21.675,3.681l0.389,-2.852l3.022,0l-0.39,2.852l-3.021,0Z" style="fill:#1b75bc;fill-rule:nonzero;"/><path d="M56.384,3.681l0.391,-2.852l3.021,0l-0.391,2.852l-3.021,0Z" style="fill:#363736;fill-rule:nonzero;"/><path d="M33.264,3.649l-1.611,13.08l-3.157,0l1.61,-13.08l-4.226,0l0.34,-2.82l11.609,0l-0.342,2.82l-4.223,0Z" style="fill:#363736;fill-rule:nonzero;"/><path d="M36.556,11.733c-0.182,1.522 0.614,2.634 2.271,2.634c1.298,0 1.728,-0.535 2.566,-1.286l2.143,1.06c-1.359,1.917 -2.896,2.725 -5.033,2.725c-2.793,0 -5.321,-1.272 -4.743,-6.067c0.467,-3.862 2.82,-6.042 5.887,-6.042c3.292,0 4.433,2.232 4.434,5.461c0,0.63 -0.096,1.514 -0.096,1.514l-7.429,0l0,0.001Zm4.623,-3.296c-0.233,-0.701 -0.828,-1.227 -1.828,-1.227c-0.999,0 -1.722,0.524 -2.124,1.227c-0.233,0.431 -0.339,0.75 -0.426,1.274l4.498,0c0.039,-0.524 0.01,-0.842 -0.12,-1.274Z" style="fill:#363736;fill-rule:nonzero;"/><path d="M50.468,16.731l-1.754,-3.545l-2.587,3.545l-3.544,0l4.818,-6.044l-3.23,-5.791l3.543,0l1.591,3.386l2.428,-3.386l3.545,0l-4.629,5.791l3.36,6.044l-3.541,0Z" style="fill:#363736;fill-rule:nonzero;"/><path d="M54.791,16.731l1.426,-11.837l2.953,0l-1.425,11.837l-2.954,0Z" style="fill:#363736;fill-rule:nonzero;"/><path d="M64.019,16.868c-2.362,0 -5.139,-1.273 -4.561,-6.067c0.576,-4.792 3.657,-6.042 6.021,-6.042c1.634,0 2.952,0.402 3.977,1.83l-2.5,1.757c-0.536,-0.657 -1.024,-0.929 -1.796,-0.929c-0.703,0 -1.281,0.25 -1.774,0.773c-0.524,0.566 -0.825,1.364 -0.973,2.611c-0.151,1.25 -0.044,2.066 0.341,2.635c0.368,0.522 0.884,0.772 1.588,0.772c0.772,0 1.328,-0.275 2.021,-0.932l1.993,1.748c-1.149,1.367 -2.699,1.844 -4.337,1.844Z" style="fill:#363736;fill-rule:nonzero;"/><path d="M77.013,15.411c-0.819,0.774 -2.106,1.455 -3.855,1.455c-1.75,0 -2.847,-0.683 -3.482,-1.455c-0.934,-1.113 -1.046,-2.453 -0.786,-4.612c0.257,-2.136 0.691,-3.475 1.894,-4.59c0.821,-0.773 2.085,-1.452 3.835,-1.452c1.749,0 2.871,0.679 3.504,1.452c0.935,1.115 1.045,2.454 0.789,4.59c-0.261,2.159 -0.696,3.501 -1.899,4.612Zm-1.393,-7.472c-0.3,-0.343 -0.73,-0.522 -1.322,-0.522c-0.593,0 -1.045,0.18 -1.429,0.522c-0.686,0.613 -0.879,1.635 -1.026,2.862c-0.15,1.228 -0.204,2.272 0.333,2.885c0.301,0.34 0.712,0.524 1.303,0.524c0.591,0 1.068,-0.184 1.45,-0.524c0.687,-0.613 0.881,-1.657 1.028,-2.885c0.147,-1.227 0.203,-2.249 -0.337,-2.862Z" style="fill:#363736;fill-rule:nonzero;"/><g><path d="M0.948,3.194c0,0 0.164,4.334 1.713,12.728l7.066,0c0,0 -0.666,-2.307 -0.666,-2.704c0,0 -5.09,-7.477 -5.967,-8.511c-0.873,-1.034 -1.946,-2.031 -2.146,-1.513Z" style="fill:#1b75bc;fill-rule:nonzero;"/><path d="M1.148,2.559c0,0 0.397,-0.676 2.943,2.823c2.546,3.499 7.199,10.183 8.432,11.852c1.232,1.671 4.236,5.4 4.803,6.12c0.566,0.723 1.082,1.36 2.237,1.52c1.153,0.159 3.493,0.647 6.856,-0.135c0,0 -1.366,-0.585 -2.958,-2.335c-1.59,-1.748 -4.852,-6.045 -7.795,-10.26c-2.945,-4.217 -6.681,-9.068 -6.882,-9.347c-0.199,-0.28 -0.556,-0.797 -1.351,-0.954c-0.798,-0.161 -4.378,-0.556 -6.285,0.716Z" style="fill:#1b75bc;fill-rule:nonzero;"/><path d="M23.779,22.247c0,0 1.829,1.907 3.222,2.266c0,0 2.819,-0.516 5.825,-6.54l-5.78,-0.019c-0.002,0 -1.399,2.502 -3.267,4.293Z" style="fill:#1b75bc;fill-rule:nonzero;"/></g></g></svg>