<?xml version="1.0" encoding="UTF-8" standalone="no"?><!DOCTYPE svg PUBLIC "-//W3C//DTD SVG 1.1//EN" "http://www.w3.org/Graphics/SVG/1.1/DTD/svg11.dtd"><svg width="100%" height="100%" viewBox="0 0 33 36" version="1.1" xmlns="http://www.w3.org/2000/svg" xmlns:xlink="http://www.w3.org/1999/xlink" xml:space="preserve" xmlns:serif="http://www.serif.com/" style="fill-rule:evenodd;clip-rule:evenodd;stroke-linejoin:round;stroke-miterlimit:1.41421;"><g id="renderinc"><path d="M11.695,0.369l9.32,0l0,3.021l-5.729,0l0,1.117l5.339,0l0,2.66l-5.339,0l0,1.196l5.807,0l0,3.021l-9.398,0l0,-11.015Z" style="fill:#3a3a3a;fill-rule:nonzero;"/><path d="M0.533,12.337l4.184,0c4.34,0 6.51,2.156 6.51,5.413l0,0.032c0,3.257 -2.217,5.57 -6.635,5.57l-4.059,0l0,-11.015Zm3.653,3.21l0,4.594l0.609,0c1.67,0 2.747,-0.692 2.747,-2.281l0,-0.032c0,-1.589 -1.077,-2.281 -2.747,-2.281l-0.609,0l0,0Z" style="fill:#3a3a3a;fill-rule:nonzero;"/><path d="M11.695,12.337l9.32,0l0,3.022l-5.729,0l0,1.117l5.339,0l0,2.659l-5.339,0l0,1.196l5.807,0l0,3.021l-9.398,0l0,-11.015Z" style="fill:#3a3a3a;fill-rule:nonzero;"/><rect x="0.565" y="24.266" width="3.653" height="11.014" style="fill:#3a3a3a;fill-rule:nonzero;"/><path d="M5.136,24.25l3.126,0l3.433,4.697l-0.018,-4.697l3.596,0l0,11.047l-3.266,-0.032l-3.559,-5.082l0,5.082l-3.312,0l0,-11.015Z" style="fill:#3a3a3a;fill-rule:nonzero;"/><path d="M16.191,29.803l0,-0.03c0,-3.168 2.545,-5.532 5.808,-5.532c2.404,0 4.027,1.136 4.948,2.758l-3.013,1.713c-0.406,-0.758 -0.984,-1.288 -1.982,-1.288c-1.234,0 -2.045,1.045 -2.045,2.318l0,0.031c0,1.379 0.842,2.349 2.045,2.349c1.03,0 1.607,-0.546 2.06,-1.333l3.014,1.652c-0.922,1.576 -2.451,2.864 -5.168,2.864c-3.028,0 -5.667,-2.212 -5.667,-5.502Z" style="fill:#3a3a3a;fill-rule:nonzero;"/><rect x="29.198" y="31.599" width="3.391" height="3.555" style="fill:#3a3a3a;fill-rule:nonzero;"/><path d="M22.012,12.337l5.339,0c1.936,0 3.169,0.488 3.934,1.259c0.655,0.661 0.999,1.479 0.999,2.612l0,0.032c0,1.605 -0.827,2.722 -2.154,3.367l2.544,3.745l-4.168,0l-2.061,-3.146l-0.78,0l0,3.146l-3.653,0l0,-11.015l0,0Zm5.229,5.24c0.875,0 1.405,-0.393 1.405,-1.07l0,-0.031c0,-0.708 -0.546,-1.054 -1.389,-1.054l-1.592,0l0,2.155l1.576,0Z" style="fill:#3a3a3a;fill-rule:nonzero;"/><path d="M22.012,0.353l3.126,0l3.433,4.697l-0.018,-4.697l3.596,0l0,11.046l-3.266,-0.032l-3.559,-5.082l0,5.082l-3.312,0l0,-11.014Z" style="fill:#3a3a3a;fill-rule:nonzero;"/><path d="M0.548,0.369l5.339,0c1.936,0 3.169,0.488 3.934,1.259c0.655,0.661 0.999,1.479 0.999,2.612l0,0.031c0,1.605 -0.827,2.722 -2.154,3.368l2.544,3.745l-4.168,0l-2.061,-3.147l-0.78,0l0,3.147l-3.653,0l0,-11.015l0,0Zm5.23,5.24c0.875,0 1.405,-0.394 1.405,-1.07l0,-0.032c0,-0.708 -0.546,-1.054 -1.389,-1.054l-1.592,0l0,2.156l1.576,0Z" style="fill:#3a3a3a;fill-rule:nonzero;"/></g></svg>