<?xml version="1.0" encoding="UTF-8" standalone="no"?><!DOCTYPE svg PUBLIC "-//W3C//DTD SVG 1.1//EN" "http://www.w3.org/Graphics/SVG/1.1/DTD/svg11.dtd"><svg width="100%" height="100%" viewBox="0 0 84 17" version="1.1" xmlns="http://www.w3.org/2000/svg" xmlns:xlink="http://www.w3.org/1999/xlink" xml:space="preserve" xmlns:serif="http://www.serif.com/" style="fill-rule:evenodd;clip-rule:evenodd;stroke-linejoin:round;stroke-miterlimit:1.41421;"><g id="virket"><path d="M8.865,13.747l-5.177,-13.208l-3.067,0l6.68,16.29l3.067,0l6.68,-16.29l-2.808,0l-5.375,13.208Z" style="fill:#1f8599;fill-rule:nonzero;"/><rect x="19.007" y="0.539" width="2.657" height="16.275" style="fill:#1f8599;"/><path d="M37.256,6.718c0,-3.75 -3.614,-6.179 -5.861,-6.179l-6.862,0l0,16.275l2.718,0l0,-13.831l3.203,0c0.896,0 1.776,0.213 2.551,0.653c0.911,0.531 1.837,1.457 1.837,3.067c0,3.218 -2.612,4.175 -4.373,4.676l4.373,5.42l3.416,0l-3.72,-4.616c0,0.016 2.718,-1.138 2.718,-5.465Z" style="fill:#1f8599;fill-rule:nonzero;"/><path d="M54.836,16.829l12.86,0l0,-2.475l-10.354,0l0,-4.585l10.354,0l0,-2.672l-10.354,0l0,-4.099l10.354,0l0,-2.459l-12.86,0l0,16.29Z" style="fill:#29394b;fill-rule:nonzero;"/><path d="M70.11,0.539l0,2.459l5.42,0l0,13.831l2.717,0l0,-13.831l5.132,0l0,-0.288l0,-2.171l-13.269,0Z" style="fill:#29394b;fill-rule:nonzero;"/><path d="M51.83,16.799l1.564,-2.004l-6.741,-6.119l6.559,-6.224l-1.716,-1.913l-8.972,8.031l9.306,8.229Z" style="fill:#29394b;fill-rule:nonzero;"/><rect x="39.806" y="0.539" width="2.718" height="16.275" style="fill:#29394b;"/></g></svg>