<?xml version="1.0" encoding="UTF-8" standalone="no"?><!DOCTYPE svg PUBLIC "-//W3C//DTD SVG 1.1//EN" "http://www.w3.org/Graphics/SVG/1.1/DTD/svg11.dtd"><svg width="100%" height="100%" viewBox="0 0 81 25" version="1.1" xmlns="http://www.w3.org/2000/svg" xmlns:xlink="http://www.w3.org/1999/xlink" xml:space="preserve" xmlns:serif="http://www.serif.com/" style="fill-rule:evenodd;clip-rule:evenodd;stroke-linejoin:round;stroke-miterlimit:1.41421;"><g id="yaydoo"><path d="M9.401,12.596c0.128,-0.274 0.13,-0.724 0.003,-0.999l-1.176,-2.573c-0.126,-0.275 -0.335,-0.725 -0.464,-0.998l-3.51,-7.446c-0.129,-0.274 -0.482,-0.498 -0.785,-0.498l-2.158,0c-0.303,0 -0.447,0.225 -0.319,0.499l5.134,11.021c0.128,0.274 0.129,0.724 0,0.998l-3.513,7.559c-0.128,0.275 0.016,0.5 0.318,0.5l2.158,0c0.303,0 0.656,-0.226 0.784,-0.5l3.528,-7.563Z" style="fill:#004954;fill-rule:nonzero;"/><path d="M9.268,20.241c-0.127,0.274 0.016,0.5 0.318,0.5l2.185,0c0.302,0 0.655,-0.226 0.783,-0.5l9.205,-19.742c0.129,-0.274 -0.015,-0.499 -0.318,-0.499l-2.184,0c-0.303,0 -0.655,0.225 -0.783,0.499l-9.206,19.742Z" style="fill:#004954;fill-rule:nonzero;"/><path d="M7.916,0.036c-0.302,0 -0.444,0.225 -0.315,0.498l3.526,7.483c0.13,0.273 0.34,0.273 0.47,0l3.526,-7.483c0.129,-0.273 -0.013,-0.498 -0.317,-0.498c0.002,0 -6.89,0 -6.89,0Z" style="fill:#6fbc44;fill-rule:nonzero;"/><path d="M28.633,15.095l0,-1.475c0,-0.231 -0.062,-0.596 -0.139,-0.814c0,0 -0.419,-1.201 -1.042,-1.824c-0.874,-0.881 -1.89,-1.323 -3.048,-1.323c-1.168,0 -2.18,0.433 -3.036,1.297c-0.857,0.865 -1.285,1.934 -1.285,3.204c0,1.263 0.428,2.323 1.285,3.179c0.856,0.856 1.868,1.284 3.036,1.284c1.158,0 2.174,-0.436 3.048,-1.311c0.623,-0.621 1.016,-1.36 1.181,-2.217m2.348,4.901c0,0.229 -0.189,0.417 -0.419,0.417l-1.512,0c-0.23,0 -0.418,-0.188 -0.418,-0.417l0,-1.24c0,-0.23 -0.132,-0.284 -0.293,-0.12c0,0 -2.042,2.089 -3.936,2.089c-1.877,0 -3.466,-0.651 -4.768,-1.953c-1.302,-1.302 -1.952,-2.839 -1.952,-4.612c0,-1.789 0.65,-3.333 1.952,-4.63c1.302,-1.298 2.891,-1.947 4.768,-1.947c1.893,0 3.303,0.788 4.229,2.361l0,-0.969c0,-0.23 0.188,-0.419 0.418,-0.419l1.512,0c0.23,0 0.419,0.189 0.419,0.419l0,11.021Z" style="fill:#004954;fill-rule:nonzero;"/><path d="M35.188,24.147c-0.098,0.209 -0.365,0.379 -0.596,0.379l-1.692,0c-0.231,0 -0.339,-0.17 -0.242,-0.379l2.735,-5.883c0.097,-0.209 0.097,-0.551 0,-0.759l-3.992,-8.568c-0.097,-0.208 0.012,-0.379 0.241,-0.379l1.693,0c0.23,0 0.499,0.171 0.596,0.378l2.731,5.795c0.098,0.208 0.259,0.208 0.357,0l2.731,-5.795c0.098,-0.208 0.366,-0.378 0.596,-0.378l1.694,0c0.23,0 0.338,0.171 0.241,0.379l-7.093,15.21Z" style="fill:#004954;fill-rule:nonzero;"/><path d="M53.17,15.458l0,-1.618c0,-0.23 -0.062,-0.595 -0.138,-0.813c0,0 -0.528,-1.504 -1.289,-2.265c-1.02,-1.02 -2.248,-1.53 -3.684,-1.53c-1.435,0 -2.661,0.51 -3.677,1.53c-1.016,1.021 -1.525,2.249 -1.525,3.684c0,1.436 0.509,2.66 1.525,3.672c1.016,1.011 2.242,1.518 3.677,1.518c1.436,0 2.664,-0.51 3.684,-1.531c0.761,-0.761 1.236,-1.643 1.427,-2.647m1.038,4.538c0,0.23 -0.188,0.418 -0.418,0.418l-0.201,0c-0.231,0 -0.419,-0.188 -0.419,-0.418l0,-1.46c0,-0.23 -0.117,-0.27 -0.26,-0.09c0,0 -0.155,0.196 -0.389,0.437c-1.227,1.237 -2.715,1.855 -4.462,1.855c-1.73,0 -3.211,-0.616 -4.443,-1.848c-1.232,-1.233 -1.849,-2.714 -1.849,-4.444c0,-1.746 0.617,-3.234 1.849,-4.462c1.233,-1.228 2.713,-1.842 4.443,-1.842c1.747,0 3.235,0.615 4.462,1.842c0.234,0.242 0.45,0.497 0.649,0.765l0,-8.26c0,-0.23 0.188,-0.417 0.419,-0.417l0.201,0c0.23,0 0.418,0.188 0.418,0.417l0,17.507Z" style="fill:#00a3b8;fill-rule:nonzero;"/><path d="M57.434,10.762c-1.016,1.021 -1.524,2.249 -1.524,3.684c0,1.436 0.507,2.66 1.524,3.672c1.016,1.011 2.242,1.518 3.678,1.518c1.435,0 2.661,-0.506 3.678,-1.518c1.016,-1.012 1.525,-2.236 1.525,-3.672c0,-1.435 -0.508,-2.663 -1.525,-3.684c-1.016,-1.02 -2.242,-1.53 -3.678,-1.53c-1.436,0 -2.662,0.51 -3.678,1.53m3.678,-2.62c1.747,0 3.232,0.614 4.456,1.842c1.224,1.228 1.836,2.716 1.836,4.462c0,1.73 -0.612,3.211 -1.836,4.444c-1.223,1.232 -2.709,1.848 -4.456,1.848c-1.73,0 -3.211,-0.616 -4.443,-1.848c-1.231,-1.233 -1.848,-2.714 -1.848,-4.444c0,-1.746 0.616,-3.234 1.848,-4.462c1.232,-1.227 2.713,-1.842 4.443,-1.842" style="fill:#00a3b8;fill-rule:nonzero;"/><path d="M70.41,10.762c-1.017,1.021 -1.524,2.249 -1.524,3.684c0,1.436 0.507,2.66 1.524,3.672c1.015,1.011 2.242,1.518 3.677,1.518c1.435,0 2.662,-0.506 3.679,-1.518c1.015,-1.012 1.523,-2.236 1.523,-3.672c0,-1.435 -0.508,-2.663 -1.523,-3.684c-1.016,-1.02 -2.244,-1.53 -3.679,-1.53c-1.436,0 -2.662,0.51 -3.677,1.53m3.677,-2.62c1.747,0 3.233,0.614 4.456,1.842c1.224,1.228 1.836,2.716 1.836,4.462c0,1.73 -0.612,3.211 -1.836,4.444c-1.223,1.232 -2.709,1.848 -4.456,1.848c-1.729,0 -3.211,-0.616 -4.443,-1.848c-1.232,-1.233 -1.848,-2.714 -1.848,-4.444c0,-1.746 0.616,-3.234 1.848,-4.462c1.232,-1.227 2.714,-1.842 4.443,-1.842" style="fill:#00a3b8;fill-rule:nonzero;"/></g></svg>